<svg width="800" height="800" viewBox="0 0 800 800" fill="none" xmlns="http://www.w3.org/2000/svg">
<path d="M535.35 718.2C544.723 708.824 549.989 696.108 549.989 682.85C549.989 669.592 544.723 656.876 535.35 647.5L287.85 400L535.35 152.5C544.458 143.07 549.498 130.44 549.384 117.33C549.27 104.22 544.011 91.6794 534.741 82.409C525.47 73.1386 512.93 67.8802 499.82 67.7663C486.71 67.6524 474.08 72.6921 464.65 81.8L181.8 364.65C172.426 374.026 167.161 386.742 167.161 400C167.161 413.258 172.426 425.974 181.8 435.35L464.65 718.2C474.026 727.574 486.742 732.839 500 732.839C513.258 732.839 525.974 727.574 535.35 718.2Z" fill="#4E4E4E"/>
</svg>
