<svg width="18" height="16" viewBox="0 0 18 16" fill="none" xmlns="http://www.w3.org/2000/svg">
<path d="M9 5.6C9.65099 5.6 10.2753 5.85286 10.7356 6.30295C11.1959 6.75304 11.4545 7.36349 11.4545 8.00001C11.4545 8.63653 11.1959 9.24698 10.7356 9.69707C10.2753 10.1472 9.65099 10.4 9 10.4C8.34901 10.4 7.72469 10.1472 7.26437 9.69707C6.80406 9.24698 6.54545 8.63653 6.54545 8.00001C6.54545 7.36349 6.80406 6.75304 7.26437 6.30295C7.72469 5.85286 8.34901 5.6 9 5.6ZM9 2C13.0909 2 16.5845 4.488 18 8.00001C16.5845 11.512 13.0909 14 9 14C4.90909 14 1.41545 11.512 0 8.00001C1.41545 4.488 4.90909 2 9 2ZM1.78364 8.00001C2.44494 9.32025 3.4718 10.4326 4.74748 11.2106C6.02317 11.9886 7.49651 12.4011 9 12.4011C10.5035 12.4011 11.9768 11.9886 13.2525 11.2106C14.5282 10.4326 15.5551 9.32025 16.2164 8.00001C15.5551 6.67976 14.5282 5.56741 13.2525 4.7894C11.9768 4.01139 10.5035 3.59895 9 3.59895C7.49651 3.59895 6.02317 4.01139 4.74748 4.7894C3.4718 5.56741 2.44494 6.67976 1.78364 8.00001Z" fill="#8A8A8E"/>
<rect width="20" height="2" transform="matrix(0.707106 0.707107 -0.707106 0.707107 2.41418 0)" fill="#8A8A8E"/>
</svg>
