<svg width="18" height="12" viewBox="0 0 18 12" fill="none" xmlns="http://www.w3.org/2000/svg">
<path d="M9 3.59989C9.65099 3.59989 10.2753 3.85275 10.7356 4.30283C11.1959 4.75292 11.4545 5.36337 11.4545 5.99989C11.4545 6.63641 11.1959 7.24686 10.7356 7.69695C10.2753 8.14703 9.65099 8.39989 9 8.39989C8.34901 8.39989 7.72469 8.14703 7.26437 7.69695C6.80406 7.24686 6.54545 6.63641 6.54545 5.99989C6.54545 5.36337 6.80406 4.75292 7.26437 4.30283C7.72469 3.85275 8.34901 3.59989 9 3.59989ZM9 -0.000110626C13.0909 -0.000110626 16.5845 2.48789 18 5.99989C16.5845 9.51189 13.0909 11.9999 9 11.9999C4.90909 11.9999 1.41545 9.51189 0 5.99989C1.41545 2.48789 4.90909 -0.000110626 9 -0.000110626ZM1.78364 5.99989C2.44494 7.32014 3.4718 8.43249 4.74748 9.21049C6.02317 9.9885 7.49651 10.4009 9 10.4009C10.5035 10.4009 11.9768 9.9885 13.2525 9.21049C14.5282 8.43249 15.5551 7.32014 16.2164 5.99989C15.5551 4.67964 14.5282 3.56729 13.2525 2.78929C11.9768 2.01128 10.5035 1.59883 9 1.59883C7.49651 1.59883 6.02317 2.01128 4.74748 2.78929C3.4718 3.56729 2.44494 4.67964 1.78364 5.99989Z" fill="#8A8A8E"/>
</svg>
