<svg width="20" height="20" viewBox="0 0 20 20" fill="none" xmlns="http://www.w3.org/2000/svg">
<path d="M4.16671 9.99984H4.17504M10 9.99984H10.0084M15.8334 9.99984H15.8417M5.00004 9.99984C5.00004 10.4601 4.62694 10.8332 4.16671 10.8332C3.70647 10.8332 3.33337 10.4601 3.33337 9.99984C3.33337 9.5396 3.70647 9.1665 4.16671 9.1665C4.62694 9.1665 5.00004 9.5396 5.00004 9.99984ZM10.8334 9.99984C10.8334 10.4601 10.4603 10.8332 10 10.8332C9.5398 10.8332 9.16671 10.4601 9.16671 9.99984C9.16671 9.5396 9.5398 9.1665 10 9.1665C10.4603 9.1665 10.8334 9.5396 10.8334 9.99984ZM16.6667 9.99984C16.6667 10.4601 16.2936 10.8332 15.8334 10.8332C15.3731 10.8332 15 10.4601 15 9.99984C15 9.5396 15.3731 9.1665 15.8334 9.1665C16.2936 9.1665 16.6667 9.5396 16.6667 9.99984Z" stroke="#101010" stroke-width="2" stroke-linecap="round" stroke-linejoin="round"/>
</svg>
